<?xml version="1.0" encoding="UTF-8"?> <!-- Creator: CorelDRAW X8 --> <svg xmlns="http://www.w3.org/2000/svg" xmlns:xlink="http://www.w3.org/1999/xlink" xml:space="preserve" width="126.795mm" height="21.7771mm" style="shape-rendering:geometricPrecision; text-rendering:geometricPrecision; image-rendering:optimizeQuality; fill-rule:evenodd; clip-rule:evenodd" viewBox="0 0 12680 2178"> <defs> <style type="text/css"> <![CDATA[ .fil0 {fill:#FEFEFE;fill-rule:nonzero} ]]> </style> </defs> <g id="Слой_x0020_1"> <metadata id="CorelCorpID_0Corel-Layer"></metadata> <path class="fil0" d="M904 829c54,-42 108,-81 156,-140 -115,-25 -220,-13 -318,32 -236,110 -357,303 -388,556 -12,94 -2,187 33,275 22,56 40,61 91,27 23,-16 46,-34 72,-46 70,-34 153,-17 209,42 -2,2 -4,6 -5,6 -97,0 -164,58 -230,117 -15,13 -20,20 -7,36 17,23 25,51 14,77 -30,68 -5,123 34,176 5,7 10,15 15,22 -13,13 -21,0 -28,-4 -275,-180 -444,-430 -500,-755 -38,-224 1,-437 93,-642 8,-17 25,-36 9,-54 -16,-17 -37,-4 -55,1 -21,6 -40,13 -61,20 -11,3 -24,7 -33,-4 -9,-10 -4,-23 2,-34 30,-62 78,-109 136,-147 12,-8 25,-17 39,-22 170,-54 302,-178 460,-252 410,-192 797,-143 1158,127 31,23 68,51 54,95 -15,47 -62,41 -100,38 -156,-11 -269,57 -354,182 -64,93 -128,187 -236,236 -83,37 -169,48 -260,35l0 0zm10866 -257l0 459c0,45 3,83 8,113 6,29 16,57 29,83l-141 0 -142 0c13,-26 22,-54 28,-83 6,-30 8,-68 8,-113l0 -695 -104 -121c-47,50 -68,81 -89,118 -24,41 -52,100 -85,177l-177 417c-26,62 -47,113 -59,155 -12,41 -21,83 -28,145l-133 0 -158 0c52,-64 76,-99 98,-140 23,-42 49,-102 84,-177l5 -11 -175 -389c-35,-80 -68,-139 -93,-181 -25,-41 -50,-74 -109,-135l185 0 164 0c-13,47 -13,77 -6,119 8,40 21,81 40,124l97 219 93 -219c16,-40 29,-81 36,-124 7,-44 8,-74 -5,-119l156 0 178 0 -1 1 130 0 167 0c3,20 12,41 26,65 14,23 35,54 65,92l233 303 238 -303c61,-77 87,-119 95,-157l126 0 126 0c-30,60 -52,109 -64,147 -13,39 -19,74 -19,108l0 581c0,45 3,83 8,113 6,29 15,57 29,83l-145 0 -145 0c14,-26 23,-54 28,-83 6,-30 9,-68 9,-113l0 -449 -305 387 -306 -397 0 0zm-1412 655l-143 0c20,-69 29,-111 35,-153 5,-41 7,-93 8,-155l0 -355 -438 544c6,30 14,61 31,119l-142 0 -143 0c20,-69 29,-111 35,-153 5,-41 8,-93 8,-155l0 -417c0,-61 -3,-112 -8,-154 -6,-41 -15,-84 -37,-154l143 0 143 0c-20,69 -29,111 -35,153 -5,41 -7,93 -7,155l0 355 437 -544c-6,-31 -14,-62 -31,-119l142 0 143 0c-20,69 -29,111 -34,153 -6,42 -8,94 -8,155l0 417c0,61 2,113 8,154 5,42 14,84 36,154l-143 0zm-1541 -836c0,-45 -3,-83 -9,-113 -5,-29 -14,-57 -28,-83l145 0 165 0c117,0 208,28 271,83 64,56 96,134 96,236 0,103 -39,181 -118,236 -73,51 -175,79 -306,83l0 198c0,45 3,83 8,113 6,29 15,57 29,83l-145 0 -145 0c14,-26 23,-54 29,-83 5,-30 8,-68 8,-113l0 -640 0 0zm216 -43l0 0 0 335c60,-2 106,-18 138,-47 35,-32 52,-77 52,-135 0,-98 -64,-153 -180,-153l-10 0 0 0zm-986 8c15,-35 30,-67 41,-98 11,-31 18,-52 18,-63l87 0 86 0c1,11 7,32 18,63 12,31 26,63 41,98l295 675c21,48 39,87 54,117 16,29 33,56 51,79l-142 0 -141 0c5,-45 -4,-87 -32,-157l-52 -133 -387 0 -54 133c-21,54 -30,95 -25,157l-125 0 -125 0c12,-16 25,-38 40,-68 14,-29 33,-72 57,-128l295 -675 0 0zm263 419l0 0 -125 -317 -132 317 257 0 0 0zm-1529 -384c0,-45 -2,-83 -8,-113 -6,-29 -15,-57 -28,-83l144 0 145 0c-13,27 -22,54 -28,84 -5,30 -8,67 -8,112l0 229 362 0 0 -229c0,-45 -2,-82 -8,-112 -5,-30 -15,-57 -28,-84l144 0 145 0c-13,26 -22,54 -28,83 -5,30 -8,68 -8,113l0 640c0,45 3,83 8,113 6,29 15,57 28,83l-144 0 -145 0c13,-26 23,-54 28,-83 6,-30 8,-68 8,-113l0 -249 -362 0 0 249c0,45 3,83 8,113 6,29 15,57 28,83l-144 0 -145 0c13,-26 22,-54 28,-83 6,-30 8,-68 8,-113l0 -640zm-775 -35c15,-35 30,-67 41,-98 11,-31 18,-52 19,-63l86 0 86 0c1,11 7,32 19,63 11,31 25,63 41,98l294 675c21,48 39,87 55,117 16,29 32,56 50,79l-141 0 -141 0c4,-45 -5,-87 -32,-157l-53 -133 -386 0 -54 133c-22,54 -31,95 -25,157l-126 0 -125 0c12,-16 25,-38 40,-68 14,-29 33,-72 58,-128l294 -675 0 0zm263 419l0 0 -125 -317 -132 317 257 0 0 0zm-1040 452l-253 0c14,-26 23,-54 28,-83 6,-30 9,-68 9,-113l0 -640c0,-45 -3,-83 -9,-113 -5,-29 -14,-57 -28,-83l253 0 358 0 -46 102 -46 101c-42,-19 -80,-33 -116,-40 -36,-8 -78,-12 -125,-12l-25 0 0 283 326 0 -49 94 -50 93c-49,-16 -88,-27 -116,-33 -28,-7 -51,-10 -70,-10l-41 0 0 302c75,-3 139,-9 194,-20 73,-15 144,-40 213,-75l-51 123 -50 124 -306 0 0 0zm-948 -476l0 280c0,45 3,83 8,113 6,29 15,57 29,83l-145 0 -144 0c13,-26 23,-54 28,-83 6,-30 8,-68 8,-113l0 -640c0,-45 -2,-82 -8,-112 -5,-30 -15,-57 -28,-84l144 0 145 0c-14,26 -23,54 -29,83 -5,30 -8,68 -8,113l0 232 239 -271c30,-35 53,-64 68,-87 15,-23 25,-46 31,-70l136 0 136 0c-20,14 -45,35 -76,65 -30,30 -74,72 -127,131l-235 261 299 379c45,57 81,100 108,130 27,29 51,50 70,66l-160 0 -162 0c-18,-33 -37,-68 -61,-102 -23,-35 -53,-80 -92,-133l-174 -241 0 0zm-1323 340c-104,-101 -156,-227 -156,-380 0,-152 55,-278 165,-379 110,-101 248,-152 413,-152 147,0 270,51 367,152 97,101 145,227 145,379 0,153 -51,279 -155,380 -103,101 -234,150 -390,150 -156,0 -286,-49 -389,-150l0 0zm622 -107l0 0c53,-65 79,-146 79,-243 0,-115 -33,-209 -98,-285 -65,-76 -148,-114 -247,-114 -80,0 -146,32 -199,97 -52,64 -79,145 -79,243 0,114 33,209 98,285 66,76 149,113 247,113 80,0 146,-32 199,-96zm4774 579c8,-18 15,-35 21,-51 6,-16 9,-27 9,-32l45 0 44 0c0,5 4,16 9,32 6,16 14,33 21,51l152 346c11,25 20,45 28,60 8,15 16,29 26,41l-73 0 -72 0c2,-23 -3,-45 -17,-81l-27 -68 -198 0 -28 68c-11,28 -16,49 -13,81l-64 0 -65 0c6,-8 13,-20 21,-35 7,-15 17,-37 30,-66l151 -346 0 0zm135 215l0 0 -64 -163 -68 163 132 0 0 0zm-519 131c0,24 2,43 4,58 3,15 8,30 15,43l-74 0 -75 0c7,-13 12,-28 15,-43 2,-15 4,-34 4,-58l0 -329c0,-23 -2,-42 -5,-57 -2,-16 -7,-30 -14,-43l130 0 188 0 -22 49 -22 49c-21,-10 -41,-18 -60,-22 -19,-4 -41,-6 -66,-6l-18 0 0 227 0 132 0 0zm-525 -329c0,-23 -1,-42 -4,-57 -3,-16 -8,-30 -15,-43l75 0 85 0c60,0 106,14 139,43 33,28 49,68 49,121 0,52 -20,93 -61,121 -37,26 -90,40 -157,42l0 102c0,24 2,43 4,58 3,15 8,30 15,43l-74 0 -75 0c7,-13 12,-28 15,-43 3,-15 4,-34 4,-58l0 -329 0 0zm111 -22l0 0 0 172c31,-1 55,-9 71,-24 18,-16 27,-39 27,-69 0,-50 -33,-79 -93,-79l-5 0zm-253 83l-90 215c-14,32 -24,58 -31,79 -6,22 -11,43 -14,75l-68 0 -82 0c27,-33 39,-51 51,-72 12,-22 25,-52 43,-91l2 -6 -89 -200c-19,-41 -35,-71 -48,-93 -13,-21 -26,-38 -56,-69l95 0 84 0c-7,24 -7,40 -3,61 4,21 11,42 21,64l49 113 48 -113c8,-20 15,-41 19,-63 3,-24 4,-39 -3,-62l81 0 91 0c-31,32 -44,50 -56,71 -12,22 -27,52 -44,91zm-604 19c67,1 121,16 159,46 40,32 60,77 60,132 0,55 -22,98 -65,128 -42,30 -101,44 -176,44l-29 0 -74 0c11,-35 16,-57 18,-78 3,-21 4,-48 4,-80l0 -215c0,-31 -1,-57 -4,-79 -2,-21 -7,-43 -18,-79l114 0 217 0 -28 57 -25 52c-30,-15 -49,-22 -68,-26 -18,-4 -41,-6 -68,-6l-17 0 0 104zm0 265l0 0c32,-2 57,-11 75,-24 22,-17 34,-40 34,-71 0,-55 -37,-87 -108,-87l-1 182zm-633 -345c0,-23 -1,-42 -4,-57 -3,-16 -7,-30 -14,-43l74 0 74 0c-6,13 -11,28 -14,43 -3,15 -4,34 -4,57l0 118 186 0 0 -118c0,-23 -1,-42 -4,-57 -3,-15 -8,-30 -15,-43l75 0 74 0c-7,13 -11,27 -15,43 -2,15 -4,34 -4,57l0 329c0,24 2,43 4,58 4,15 8,30 15,43l-74 0 -75 0c7,-13 12,-28 15,-43 3,-15 4,-34 4,-58l0 -128 -186 0 0 128c0,24 1,43 4,58 3,15 8,30 14,43l-74 0 -74 0c7,-13 11,-28 14,-43 3,-15 4,-34 4,-58l0 -329zm-171 430l-73 0c10,-35 15,-57 18,-78 2,-22 3,-49 4,-80l0 -183 -225 280c3,15 7,31 16,61l-73 0 -74 0c11,-35 15,-57 18,-78 3,-22 4,-49 4,-80l0 -215c0,-31 -1,-57 -4,-79 -3,-21 -7,-43 -19,-79l74 0 73 0c-10,36 -15,57 -18,79 -2,21 -4,48 -3,79l0 183 224 -280c-3,-15 -7,-31 -16,-61l73 0 74 0c-11,36 -15,57 -18,79 -3,21 -4,48 -4,79l0 215c0,31 1,58 4,79 3,21 7,43 18,79l-73 0zm-792 -430c0,-23 -1,-42 -4,-57 -3,-16 -8,-30 -15,-43l75 0 85 0c60,0 106,14 139,43 33,28 49,68 49,121 0,52 -20,93 -60,121 -38,26 -91,40 -158,42l0 102c0,24 2,43 5,58 3,15 7,30 14,43l-74 0 -75 0c7,-13 12,-28 15,-43 3,-15 4,-34 4,-58l0 -329 0 0zm111 -22l0 0 0 172c31,-1 55,-9 71,-24 18,-16 27,-39 27,-69 0,-50 -33,-79 -93,-79l-5 0zm-394 452l-130 0c7,-13 11,-28 14,-43 3,-15 5,-34 5,-58l0 -329c0,-23 -2,-42 -5,-57 -3,-16 -7,-30 -14,-43l130 0 183 0 -23 52 -24 52c-21,-10 -41,-17 -59,-21 -19,-4 -40,-6 -64,-6l-13 0 0 146 167 0 -25 48 -26 48c-25,-8 -45,-14 -59,-17 -14,-4 -26,-6 -36,-6l-21 0 0 156c38,-1 71,-5 99,-11 38,-7 74,-20 110,-38l-26 63 -26 64 -157 0 0 0zm-438 -452c-38,0 -69,2 -92,5 -33,4 -56,10 -68,20l12 -52 12 -51 192 0 216 0 -14 51 -14 52c-14,-10 -32,-16 -53,-20 -19,-4 -46,-6 -79,-6l0 352c0,22 1,41 4,56 3,15 8,30 16,45l-76 0 -77 0c8,-15 14,-30 17,-45 3,-15 4,-34 4,-56l0 -351 0 0zm-492 5c8,-18 15,-35 21,-51 6,-16 9,-27 10,-32l44 0 44 0c1,5 4,16 10,32 5,16 13,33 21,51l150 346c11,25 20,45 28,60 8,15 17,29 26,41l-73 0 -71 0c2,-23 -2,-45 -17,-81l-26 -68 -199 0 -28 68c-11,28 -15,49 -13,81l-64 0 -19 0 -45 0 -38 0 -83 0c-9,-17 -19,-35 -31,-53 -12,-18 -28,-40 -48,-68l-89 -124 0 144c0,24 1,43 4,58 3,15 8,30 15,43l-74 0 -75 0c7,-13 12,-28 14,-43 3,-15 5,-34 5,-58l0 -329c0,-23 -2,-42 -5,-57 -2,-15 -7,-30 -14,-43l74 0 75 0c-7,13 -12,27 -15,43 -3,15 -4,34 -4,57l0 120 123 -140c15,-17 27,-32 35,-44 7,-12 12,-24 15,-36l71 0 70 0c-11,7 -24,18 -40,33 -15,15 -38,37 -65,67l-121 135 154 194c23,30 42,52 56,67 2,3 5,5 7,8 1,-3 3,-6 4,-9 7,-15 17,-37 30,-66l151 -346 0 0zm134 215l0 0 -63 -163 -68 163 132 0 -1 0zm-1019 232l-130 0c7,-13 11,-28 14,-43 3,-15 5,-34 5,-58l0 -329c0,-23 -2,-42 -5,-57 -3,-16 -7,-30 -14,-43l130 0 183 0 -23 52 -24 52c-21,-10 -41,-17 -59,-21 -19,-4 -40,-6 -64,-6l-13 0 0 146 167 0 -25 48 -26 48c-25,-8 -45,-14 -59,-17 -14,-4 -26,-6 -36,-6l-21 0 0 156c38,-1 71,-5 99,-11 38,-7 74,-20 110,-38l-26 63 -26 64 -157 0 0 0zm-2206 -41c33,-8 56,-12 76,-19 75,-27 107,-88 125,-160 7,-30 11,-62 22,-92 19,-49 56,-69 98,-59 46,11 77,51 76,99 -2,103 -86,206 -196,239 -63,20 -126,22 -201,-8zm401 -68c25,-44 49,-79 63,-119 30,-88 20,-175 -10,-261 -7,-21 -16,-42 -24,-63 -18,-51 -15,-100 25,-138 44,-41 98,-44 152,-24 81,30 128,118 121,222 -12,158 -149,331 -301,380 -5,2 -11,1 -26,3l0 0zm998 -800c-21,-73 -47,-142 -91,-202 -103,-142 -242,-222 -416,-241 -25,-3 -51,-6 -75,-12 -55,-14 -93,-63 -90,-110 3,-45 46,-92 98,-98 133,-15 254,16 359,100 135,109 188,261 213,425 6,46 14,91 2,138l0 0zm-1585 928c104,36 203,53 304,44 292,-23 522,-152 670,-410 59,-103 78,-214 22,-328 -74,-149 -246,-209 -384,-132 -40,22 -66,55 -87,94 -6,12 -6,31 -23,30 -14,-1 -20,-18 -26,-30 -42,-86 -35,-174 2,-257 84,-188 232,-300 434,-328 255,-36 492,100 599,334 62,136 62,278 14,418 -103,297 -310,500 -594,625 -302,132 -603,113 -898,-30 -10,-5 -23,-8 -33,-30z"></path> </g> </svg> 